<svg width="41" height="45" viewBox="0 0 41 45" fill="none" xmlns="http://www.w3.org/2000/svg">
<path d="M35.3236 27.0674C35.3613 26.5889 35.3862 26.1133 35.3862 25.6524V7.64638C35.3862 7.52507 35.3503 7.40646 35.2831 7.3055C35.2158 7.20453 35.1202 7.12571 35.0083 7.07896L18.1994 0.047711C18.1242 0.0162183 18.0434 0 17.9619 0C17.8804 0 17.7996 0.0162183 17.7244 0.047711L0.915856 7.07896C0.803913 7.12571 0.708299 7.20453 0.64105 7.3055C0.5738 7.40646 0.537921 7.52507 0.537927 7.64638V25.6524C0.532118 29.2412 1.59048 32.7512 3.57921 35.7387C5.56794 38.7261 8.39776 41.0569 11.7109 42.4363L17.7251 44.9521C17.8003 44.9836 17.881 44.9999 17.9626 44.9999C18.0441 44.9999 18.1249 44.9836 18.2001 44.9521L24.2146 42.4363C24.3074 42.3976 24.3978 42.3551 24.4895 42.3147C25.4704 43.2505 26.6412 43.9643 27.9224 44.4077C29.2035 44.8511 30.5651 45.0136 31.9146 44.8842C33.2641 44.7549 34.57 44.3367 35.7437 43.6581C36.9173 42.9794 37.9312 42.0562 38.7164 40.9511C39.5017 39.846 40.0401 38.5849 40.2949 37.2533C40.5497 35.9218 40.5151 34.551 40.1933 33.234C39.8716 31.9171 39.2702 30.6847 38.4301 29.6207C37.59 28.5567 36.5307 27.6859 35.3243 27.0674H35.3236ZM17.9621 43.7177L12.1852 41.3015C9.09622 40.0151 6.45794 37.8419 4.60382 35.0565C2.7497 32.271 1.76299 28.9984 1.7684 25.6524V8.05595L17.9621 1.28205L34.1557 8.05595V25.6524C34.1557 25.947 34.1459 26.25 34.129 26.5524C33.3969 26.2953 32.6357 26.13 31.8629 26.0602C31.8671 25.9217 31.8706 25.7849 31.8706 25.6516V9.98673C31.8706 9.86538 31.8347 9.74674 31.7674 9.64572C31.7002 9.5447 31.6046 9.46581 31.4927 9.41896L18.1994 3.85865C18.1242 3.82716 18.0434 3.81094 17.9619 3.81094C17.8804 3.81094 17.7996 3.82716 17.7244 3.85865L4.43113 9.41896C4.31928 9.4659 4.22378 9.54483 4.15661 9.64583C4.08944 9.74684 4.05359 9.86543 4.05355 9.98673V25.6524C4.04886 28.5476 4.90263 31.3793 6.50695 33.7895C8.11127 36.1997 10.3941 38.0801 13.0669 39.1931L17.7244 41.1411C17.7996 41.1727 17.8803 41.1889 17.9619 41.1889C18.0434 41.1889 18.1242 41.1727 18.1994 41.1411L22.4012 39.3833C22.7224 40.0874 23.1286 40.7494 23.611 41.3545L17.9621 43.7177ZM21.5522 35.4754C21.5518 36.4099 21.6904 37.3393 21.9636 38.233L17.9621 39.9068L13.5419 38.0579C11.0931 37.0383 9.00151 35.3156 7.53165 33.1074C6.0618 30.8993 5.27963 28.305 5.28402 25.6524V10.3963L17.9621 5.09298L30.6401 10.3963V25.6541C30.6401 25.7768 30.637 25.9034 30.6331 26.0317C28.1937 26.1307 25.8868 27.1686 24.1946 28.9284C22.5024 30.6882 21.5557 33.0339 21.5522 35.4754ZM26.2171 42.155V41.3999C26.218 40.5377 26.561 39.7111 27.1706 39.1014C27.7803 38.4918 28.6069 38.1489 29.4691 38.1479H32.5452C33.4074 38.1489 34.234 38.4918 34.8437 39.1014C35.4533 39.7111 35.7963 40.5377 35.7972 41.3999V42.1547C34.402 43.1593 32.7264 43.6998 31.0072 43.6998C29.2879 43.6998 27.6123 43.1596 26.2171 42.155ZM37.0118 41.0874C36.9321 39.9569 36.4273 38.8985 35.599 38.125C34.7707 37.3514 33.6803 36.9202 32.547 36.9178H29.4708C28.3375 36.9201 27.247 37.3513 26.4187 38.1249C25.5904 38.8984 25.0857 39.9568 25.006 41.0874C23.9103 39.9166 23.1807 38.4512 22.9069 36.8712C22.6332 35.2913 22.8273 33.6658 23.4653 32.1947C24.1034 30.7236 25.1575 29.4711 26.4981 28.5913C27.8387 27.7115 29.4072 27.2428 31.0107 27.2428C32.6142 27.2428 34.1827 27.7115 35.5232 28.5913C36.8638 29.4711 37.9179 30.7236 38.556 32.1947C39.194 33.6658 39.3881 35.2913 39.1144 36.8712C38.8407 38.4512 38.1111 39.9166 37.0154 41.0874H37.0118Z" fill="#242424"/>
<path d="M31.0067 29.0054C30.3162 28.9669 29.63 29.1365 29.037 29.4922C28.4439 29.848 27.9713 30.3735 27.6802 31.0008C27.3891 31.6281 27.2929 32.3283 27.4042 33.0109C27.5154 33.6934 27.8289 34.3269 28.3041 34.8293C28.7793 35.3318 29.3943 35.68 30.0696 35.8291C30.7449 35.9782 31.4494 35.9211 32.092 35.6654C32.7345 35.4097 33.2855 34.9671 33.6737 34.3947C34.062 33.8224 34.2695 33.1468 34.2695 32.4552C34.2926 31.5656 33.9622 30.703 33.3506 30.0564C32.7391 29.4098 31.8963 29.0318 31.0067 29.0054ZM31.0067 34.6743C30.5594 34.7137 30.1107 34.617 29.7193 34.397C29.328 34.177 29.0122 33.8438 28.8135 33.4412C28.6148 33.0386 28.5423 32.5854 28.6056 32.1409C28.6689 31.6964 28.865 31.2814 29.1683 30.9503C29.4715 30.6192 29.8677 30.3875 30.3049 30.2855C30.7422 30.1834 31.2 30.2159 31.6185 30.3786C32.0369 30.5413 32.3965 30.8266 32.65 31.1972C32.9035 31.5678 33.0391 32.0063 33.039 32.4552C33.0624 33.0188 32.8618 33.5687 32.4809 33.9848C32.1001 34.4008 31.5701 34.6492 31.0067 34.6757V34.6743Z" fill="#242424"/>
<path d="M17.962 9.94531C16.4211 9.94531 14.9147 10.4023 13.6334 11.2584C12.3521 12.1145 11.3535 13.3313 10.7638 14.755C10.1741 16.1787 10.0198 17.7453 10.3204 19.2567C10.6211 20.768 11.3631 22.1563 12.4527 23.2459C13.5424 24.3356 14.9307 25.0776 16.442 25.3783C17.9534 25.6789 19.52 25.5246 20.9437 24.9349C22.3673 24.3452 23.5842 23.3465 24.4403 22.0653C25.2964 20.784 25.7534 19.2776 25.7534 17.7366C25.751 15.671 24.9294 13.6906 23.4688 12.2299C22.0081 10.7693 20.0277 9.94764 17.962 9.94531ZM23.889 20.5309H21.9129C22.0565 19.8123 22.1425 19.0834 22.1702 18.3512H24.4906C24.4189 19.1073 24.2154 19.845 23.889 20.5309ZM12.0351 14.941H14.0108C13.8676 15.6596 13.7816 16.3885 13.7535 17.1207H11.4332C11.5049 16.3646 11.7086 15.6268 12.0351 14.941ZM18.5773 13.7105V11.3445C19.2185 11.6792 19.8394 12.5135 20.2866 13.7112L18.5773 13.7105ZM20.6515 14.941C20.8117 15.6576 20.9076 16.3871 20.938 17.1207H18.5773V14.941H20.6515ZM17.3468 11.3438V13.7105H15.6375C16.0847 12.5152 16.7056 11.6792 17.3468 11.3445V11.3438ZM17.3468 14.941V17.1207H14.9861C15.0163 16.387 15.1122 15.6576 15.2726 14.941H17.3468ZM11.4325 18.3512H13.7528C13.7809 19.0834 13.8669 19.8122 14.0101 20.5309H12.0344C11.7079 19.845 11.5042 19.1073 11.4325 18.3512ZM14.9861 18.3512H17.3468V20.5309H15.2726C15.1122 19.8143 15.0163 19.0848 14.9861 18.3512ZM17.3468 21.7613V24.128C16.7056 23.7937 16.0847 22.9591 15.6372 21.7613H17.3468ZM18.5773 24.128V21.7613H20.2866C19.8394 22.9595 19.2185 23.7937 18.5773 24.128ZM18.5773 20.5309V18.3512H20.938C20.9076 19.0848 20.8117 19.8143 20.6515 20.5309H18.5773ZM22.1702 17.1207C22.1423 16.3885 22.0563 15.6596 21.9129 14.941H23.889C24.2157 15.6268 24.4197 16.3645 24.4916 17.1207H22.1702ZM23.1314 13.7105H21.5947C21.3844 13.0357 21.0891 12.3903 20.7158 11.79C21.6618 12.2298 22.4897 12.8881 23.1314 13.7105ZM15.2065 11.7907C14.8339 12.3909 14.5392 13.036 14.3294 13.7105H12.7927C13.4341 12.8886 14.2613 12.2306 15.2065 11.7907ZM12.7923 21.7613H14.3294C14.5391 22.4361 14.8339 23.0815 15.2065 23.6819C14.2611 23.2418 13.4337 22.5835 12.7923 21.7613ZM20.7172 23.6823C21.0905 23.0818 21.3858 22.4363 21.5961 21.7613H23.1332C22.4913 22.5839 21.6633 23.2421 20.7172 23.6823Z" fill="#242424"/>
</svg>
