<svg width="45" height="45" viewBox="0 0 45 45" fill="none" xmlns="http://www.w3.org/2000/svg">
<path d="M41.7113 12.7447C41.7114 10.8746 41.1569 9.04646 40.118 7.49149C39.079 5.93653 37.6023 4.72456 35.8746 4.00887C34.1469 3.29318 32.2457 3.10591 30.4115 3.47073C28.5773 3.83555 26.8925 4.73609 25.5702 6.05845C24.2478 7.38082 23.3473 9.06562 22.9824 10.8998C22.6176 12.734 22.8049 14.6351 23.5206 16.3629C24.2363 18.0906 25.4482 19.5673 27.0032 20.6063C28.5582 21.6452 30.3863 22.1997 32.2564 22.1996C34.7632 22.1968 37.1664 21.1998 38.939 19.4272C40.7115 17.6547 41.7085 15.2514 41.7113 12.7447ZM24.0316 12.7447C24.0315 11.118 24.5139 9.52775 25.4176 8.17514C26.3213 6.82253 27.6058 5.76828 29.1087 5.14571C30.6116 4.52314 32.2653 4.36021 33.8608 4.67753C35.4563 4.99485 36.9218 5.77816 38.0721 6.9284C39.2224 8.07865 40.0058 9.54417 40.3232 11.1396C40.6405 12.7351 40.4777 14.3888 39.8552 15.8918C39.2327 17.3947 38.1785 18.6792 36.8259 19.583C35.4733 20.4868 33.8831 20.9691 32.2564 20.9691C30.0759 20.9666 27.9854 20.0993 26.4435 18.5575C24.9016 17.0157 24.0342 14.9252 24.0316 12.7447Z" fill="#242424"/>
<path d="M36.9148 31.6863H15.6892V29.6026H32.2566C32.3414 29.6023 32.4252 29.5844 32.5027 29.5499H32.5048C33.016 29.3242 45.0007 23.8862 45.0007 12.7441C45.0007 9.36419 43.658 6.12266 41.268 3.73267C38.8781 1.34268 35.6365 0 32.2566 0C28.8766 0 25.6351 1.34268 23.2451 3.73267C20.8551 6.12266 19.5124 9.36419 19.5124 12.7441C19.5124 18.5354 22.7503 22.7823 25.9316 25.5596H15.4255C14.4235 25.5608 13.4629 25.9593 12.7544 26.6678C12.0459 27.3763 11.6473 28.337 11.6462 29.3389V31.9489C11.6473 32.9509 12.0459 33.9116 12.7544 34.6201C13.4629 35.3286 14.4235 35.7271 15.4255 35.7282H36.6511V37.5504H10.4597C9.99011 36.3804 9.12783 35.4104 8.02093 34.8069C6.91403 34.2035 5.63156 34.0042 4.39373 34.2433C3.15591 34.4825 2.03995 35.1451 1.23748 36.1174C0.435011 37.0898 -0.00390625 38.3112 -0.00390625 39.5719C-0.00390625 40.8326 0.435011 42.054 1.23748 43.0263C2.03995 43.9987 3.15591 44.6613 4.39373 44.9004C5.63156 45.1396 6.91403 44.9403 8.02093 44.3368C9.12783 43.7334 9.99011 42.7634 10.4597 41.5934H36.9148C37.9168 41.5922 38.8774 41.1937 39.5859 40.4852C40.2944 39.7767 40.693 38.8161 40.6941 37.8141V35.4646C40.6927 34.4628 40.294 33.5024 39.5855 32.7941C38.8771 32.0858 37.9166 31.6874 36.9148 31.6863ZM20.7429 12.7441C20.7429 9.69053 21.9559 6.76198 24.1152 4.60275C26.2744 2.44351 29.203 1.23047 32.2566 1.23047C35.3102 1.23047 38.2387 2.44351 40.398 4.60275C42.5572 6.76198 43.7702 9.69053 43.7702 12.7441C43.7702 22.2304 33.9581 27.47 32.2562 28.3068C30.5533 27.4714 20.7429 22.2437 20.7429 12.7441ZM5.42779 43.7706C4.59774 43.7706 3.78633 43.5245 3.09616 43.0633C2.40599 42.6022 1.86805 41.9468 1.55037 41.1799C1.2327 40.4131 1.14954 39.5692 1.31142 38.7551C1.47331 37.941 1.87296 37.1932 2.45984 36.6062C3.04673 36.0192 3.79449 35.6194 4.60857 35.4574C5.42265 35.2954 6.2665 35.3784 7.0334 35.696C7.80031 36.0135 8.45583 36.5513 8.91708 37.2414C9.37833 37.9315 9.6246 38.7429 9.62474 39.5729C9.62372 40.6858 9.18123 41.7528 8.39439 42.5397C7.60755 43.3267 6.54064 43.7694 5.42779 43.7706ZM39.4636 37.8151C39.4629 38.4909 39.1941 39.1388 38.7163 39.6166C38.2384 40.0944 37.5905 40.3632 36.9148 40.3639H10.7909C10.8767 39.8401 10.8767 39.3058 10.7909 38.7819H36.9148C37.1711 38.7816 37.4169 38.6797 37.5981 38.4984C37.7794 38.3172 37.8813 38.0714 37.8816 37.8151V35.4656C37.8814 35.2093 37.7795 34.9635 37.5982 34.7822C37.4169 34.6009 37.1711 34.499 36.9148 34.4988H15.4255C14.7498 34.4981 14.1019 34.2293 13.6241 33.7515C13.1462 33.2736 12.8774 32.6258 12.8767 31.95V29.34C12.8774 28.6642 13.1462 28.0164 13.6241 27.5385C14.1019 27.0607 14.7498 26.7919 15.4255 26.7912H27.4521C28.2085 27.3577 28.993 27.8858 29.8027 28.3732H15.4255C15.1692 28.3734 14.9234 28.4753 14.7421 28.6566C14.5608 28.8378 14.4589 29.0836 14.4587 29.34V31.95C14.459 32.2063 14.561 32.4521 14.7422 32.6333C14.9234 32.8146 15.1692 32.9165 15.4255 32.9168H36.9148C37.5905 32.9175 38.2384 33.1863 38.7163 33.6642C39.1941 34.142 39.4629 34.7899 39.4636 35.4656V37.8151Z" fill="#242424"/>
</svg>
