<svg width="45" height="45" viewBox="0 0 45 45" fill="none" xmlns="http://www.w3.org/2000/svg">
<path d="M39.721 26.9535C41.2013 22.5912 41.1621 17.8564 39.6098 13.5192C38.0576 9.18204 35.0836 5.49761 31.1715 3.06521C27.2595 0.6328 22.6396 -0.404484 18.0632 0.122066C13.4868 0.648617 9.22313 2.70802 5.96573 5.96533C2.70833 9.22264 0.648807 13.4862 0.122131 18.0626C-0.404546 22.639 0.632611 27.2589 3.06491 31.1711C5.49721 35.0832 9.18156 38.0573 13.5187 39.6096C17.8558 41.162 22.5906 41.2013 26.953 39.7212C27.6259 41.0733 28.6108 42.2459 29.8264 43.1423C31.0419 44.0387 32.4533 44.633 33.9439 44.8763C35.4344 45.1197 36.9615 45.0049 38.399 44.5416C39.8365 44.0783 41.1432 43.2797 42.2112 42.2118C43.2791 41.1438 44.0778 39.8372 44.5411 38.3997C45.0045 36.9622 45.1192 35.4351 44.876 33.9445C44.6327 32.4539 44.0384 31.0426 43.142 29.827C42.2457 28.6114 41.0731 27.6265 39.721 26.9535ZM38.5844 26.4754C36.2446 25.6641 33.6804 25.7993 31.4389 26.8522L32.3406 25.2783C32.394 25.1852 32.422 25.0797 32.4219 24.9724V22.0632L34.3337 20.0966C34.4454 19.9818 34.5079 19.8279 34.5077 19.6677V17.1649C34.5077 17.0306 34.4637 16.8999 34.3824 16.793C34.3012 16.686 34.1871 16.6086 34.0577 16.5725L30.6827 15.6318L29.4346 13.1898C29.3904 13.1034 29.3264 13.0287 29.2479 12.9718C29.1693 12.9148 29.0784 12.8773 28.9825 12.8622L24.1978 12.1095V11.6398L30.6567 10.2103L33.0701 12.622C33.1856 12.7374 33.3421 12.8022 33.5054 12.8024H37.9983C39.8715 17.1317 40.0802 22.0002 38.5844 26.474V26.4754ZM37.4098 11.5733H33.7599L31.2895 9.10184C31.2163 9.02879 31.126 8.9753 31.0268 8.94631C30.9276 8.91731 30.8227 8.91373 30.7217 8.93591L23.4496 10.545C23.3129 10.5753 23.1906 10.6513 23.103 10.7605C23.0153 10.8697 22.9674 11.0055 22.9673 11.1455V12.6354C22.9674 12.782 23.0197 12.9237 23.115 13.035C23.2102 13.1464 23.3421 13.2201 23.4869 13.2429L28.4815 14.0283L29.7096 16.4316C29.7482 16.5073 29.8022 16.5742 29.868 16.628C29.9339 16.6818 30.0101 16.7213 30.0921 16.7441L33.2772 17.6318V19.4177L31.3654 21.3844C31.2538 21.4993 31.1914 21.6531 31.1914 21.8133V24.8083L29.1601 28.3552C28.338 29.0843 27.6473 29.9493 27.1182 30.9124H25.7471V28.9651C25.7471 28.8799 25.7293 28.7955 25.695 28.7174C25.6607 28.6394 25.6106 28.5693 25.5478 28.5116L22.8871 26.0721V23.2434C22.8871 23.1172 22.8483 22.994 22.7758 22.8906C22.7034 22.7872 22.6008 22.7086 22.4821 22.6655L16.9865 20.6672V16.0969L20.5774 12.2195C20.6355 12.1567 20.68 12.0824 20.7078 12.0015C20.7357 11.9205 20.7463 11.8346 20.7391 11.7493C20.7318 11.664 20.7068 11.5812 20.6657 11.5061C20.6246 11.431 20.5683 11.3653 20.5004 11.3132L17.2161 8.79388L19.9076 4.997H25.4001C25.5632 4.99692 25.7197 4.93205 25.835 4.81665L27.8944 2.75755C31.9889 4.50942 35.351 7.62428 37.4098 11.5733ZM8.02553 5.77817L9.5703 8.96017L8.32647 9.58243C8.26534 9.61296 8.20973 9.65348 8.16194 9.70231L5.24186 12.6818C5.16116 12.7641 5.10519 12.8674 5.08033 12.98C5.05547 13.0926 5.06271 13.2098 5.10124 13.3185L5.51995 14.4955C5.03996 14.7913 4.60526 15.1549 4.22936 15.5752L1.74839 15.9928C2.69617 12.0049 4.89595 8.42529 8.02553 5.77817ZM1.23546 20.5811H3.25096L8.33632 22.4939L10.9379 26.8983V28.661L10.1757 29.8184C10.0922 29.9449 10.0584 30.0979 10.0808 30.2478C10.1031 30.3978 10.1801 30.5342 10.297 30.6308L10.4903 30.7904L8.64499 31.8936C8.55374 31.9482 8.47818 32.0254 8.42568 32.1178C8.37319 32.2102 8.34554 32.3147 8.34546 32.421V35.2908C6.14829 33.5155 4.37131 31.2759 3.14203 28.7327C1.91275 26.1895 1.26166 23.4057 1.23546 20.5811ZM20.4016 39.5728C16.5346 39.5763 12.7581 38.4034 9.57346 36.2098C9.57346 36.202 9.57557 36.1947 9.57557 36.1869V32.7708L11.8685 31.3997C11.9531 31.3492 12.0244 31.2792 12.0763 31.1954C12.1282 31.1117 12.1592 31.0167 12.1667 30.9184C12.1742 30.8202 12.158 30.7216 12.1194 30.6309C12.0809 30.5402 12.0211 30.4601 11.9451 30.3974L11.5064 30.0342L12.0664 29.1841C12.1328 29.0837 12.1681 28.966 12.168 28.8456V26.7299C12.1681 26.6199 12.1386 26.512 12.0826 26.4174L9.28553 21.6818C9.21418 21.561 9.10365 21.4682 8.97229 21.4188L3.57932 19.39C3.51008 19.364 3.43673 19.3506 3.36276 19.3506H1.26077C1.29941 18.6582 1.37535 17.9684 1.48823 17.2841L4.65229 16.7518C4.79841 16.7272 4.93073 16.6507 5.02495 16.5363C5.44229 16.0311 5.96163 15.6197 6.54897 15.3291C6.6834 15.2619 6.78862 15.1479 6.84477 15.0086C6.90092 14.8692 6.90412 14.7141 6.85378 14.5725L6.38971 13.2675L8.96878 10.6361L10.6644 9.7881C10.8092 9.71563 10.9196 9.58902 10.9717 9.43569C11.0239 9.28236 11.0135 9.11467 10.9428 8.96896L9.01202 4.99314C11.5075 3.14235 14.4165 1.92775 17.4872 1.45453C20.5578 0.981309 23.6975 1.26372 26.6344 2.27732L25.1452 3.76653H19.5895C19.4912 3.76658 19.3943 3.79015 19.307 3.83529C19.2196 3.88043 19.1443 3.94581 19.0874 4.02599L15.8696 8.56571C15.7776 8.69556 15.7396 8.85598 15.7633 9.01331C15.7871 9.17063 15.871 9.31262 15.9972 9.40946L19.2158 11.8781L15.9202 15.4345C15.8147 15.5483 15.7561 15.6977 15.756 15.8529V21.0982C15.756 21.2245 15.7949 21.3477 15.8674 21.4511C15.9398 21.5545 16.0424 21.6331 16.161 21.6762L21.6567 23.6745V26.3428C21.6567 26.4281 21.6744 26.5124 21.7087 26.5905C21.743 26.6686 21.7932 26.7387 21.856 26.7963L24.517 29.2355V31.5277C24.517 31.6908 24.5818 31.8473 24.6972 31.9627C24.8126 32.0781 24.969 32.1429 25.1322 32.1429H26.555C25.7785 34.2155 25.7503 36.4941 26.4752 38.5853C24.5172 39.2401 22.4662 39.5736 20.4016 39.5728ZM35.4759 43.7705C33.8354 43.7705 32.2317 43.2841 30.8676 42.3728C29.5036 41.4614 28.4404 40.166 27.8126 38.6504C27.1847 37.1347 27.0204 35.467 27.3405 33.858C27.6605 32.249 28.4505 30.771 29.6105 29.611C30.7705 28.451 32.2485 27.661 33.8575 27.341C35.4664 27.021 37.1342 27.1853 38.6498 27.8131C40.1655 28.4409 41.4609 29.5041 42.3722 30.8682C43.2836 32.2322 43.77 33.8359 43.7699 35.4764C43.7674 37.6754 42.8928 39.7835 41.3379 41.3384C39.783 42.8933 37.6748 43.768 35.4759 43.7705Z" fill="#242424"/>
<path d="M42.0628 31.9996L41.2805 31.217C40.899 30.8354 40.3815 30.6211 39.8419 30.6211C39.3024 30.6211 38.7849 30.8354 38.4033 31.217L36.7622 32.8577L33.9638 32.2098C33.5883 32.1216 33.1965 32.1311 32.8257 32.2373C32.4549 32.3436 32.1175 32.543 31.8456 32.8166L31.1991 33.4635C31.1282 33.5342 31.0757 33.6213 31.046 33.717C31.0164 33.8127 31.0107 33.9142 31.0293 34.0127C31.0478 34.1111 31.0902 34.2036 31.1526 34.2819C31.2151 34.3603 31.2957 34.4222 31.3876 34.4622L34.012 35.6083L32.9784 36.6416L30.5206 36.8694C30.3779 36.8821 30.2441 36.9442 30.1423 37.0452L28.8879 38.2992C28.8122 38.375 28.7576 38.4694 28.7295 38.5728C28.7014 38.6762 28.7008 38.7852 28.7278 38.8889C28.7547 38.9927 28.8083 39.0876 28.8832 39.1642C28.9581 39.2409 29.0517 39.2967 29.1548 39.3261L32.2246 40.1994C32.8163 40.3677 33.4421 40.3749 34.0374 40.2204C34.6328 40.0659 35.1761 39.7552 35.6112 39.3205L42.0628 32.869C42.1199 32.8119 42.1653 32.7441 42.1962 32.6695C42.2272 32.5949 42.2431 32.5149 42.2431 32.4341C42.2431 32.3533 42.2272 32.2733 42.1962 32.1987C42.1653 32.1241 42.1199 32.0566 42.0628 31.9996ZM34.7411 38.4507C34.4611 38.7307 34.1115 38.9307 33.7283 39.0303C33.3451 39.1299 32.9423 39.1253 32.5614 39.0171L30.4992 38.4307L30.8556 38.0742L33.3134 37.846C33.4562 37.8335 33.59 37.7713 33.6917 37.6703L35.5198 35.8421C35.5907 35.7713 35.6431 35.6843 35.6727 35.5886C35.7022 35.4929 35.7079 35.3914 35.6893 35.293C35.6707 35.1946 35.6283 35.1022 35.5659 35.0239C35.5035 34.9456 35.4228 34.8837 35.331 34.8437L32.707 33.6972L32.7161 33.6881C32.8405 33.5627 32.995 33.4713 33.1648 33.4226C33.3347 33.374 33.5141 33.3698 33.6861 33.4104L36.8174 34.1353C36.9191 34.1589 37.0251 34.1561 37.1255 34.1273C37.2258 34.0985 37.3171 34.0446 37.3908 33.9708L39.2735 32.0888C39.4265 31.9423 39.6301 31.8606 39.8419 31.8606C40.0538 31.8606 40.2574 31.9423 40.4104 32.0888L40.7578 32.4362L34.7411 38.4507Z" fill="#242424"/>
</svg>
